<svg xmlns="http://www.w3.org/2000/svg" width="960" height="417" viewBox="0 0 960 417" role="img" aria-label="束搜索逐步展开。扩展候选、累加分数、保留前 k 项"><title>束搜索逐步展开</title><desc>扩展候选、累加分数、保留前 k 项。用束宽 2 的状态变化观察早期决定如何影响后续候选。</desc><defs><marker id="arrow" viewBox="0 0 10 10" refX="9" refY="5" markerWidth="7" markerHeight="7" orient="auto"><path d="M0 0 L10 5 L0 10" fill="none" stroke="#176653" stroke-width="1.6"/></marker><marker id="arrow-amber" viewBox="0 0 10 10" refX="9" refY="5" markerWidth="7" markerHeight="7" orient="auto"><path d="M0 0 L10 5 L0 10" fill="none" stroke="#b47936" stroke-width="1.6"/></marker></defs><rect width="960" height="417" fill="#fbfdfb"/><g font-family="PingFang SC,Microsoft YaHei,Arial,sans-serif"><text x="46" y="41" fill="#263f35" font-size="22" font-weight="650" text-anchor="start" font-family="sans-serif">束搜索逐步展开</text><text x="46" y="66" fill="#667f72" font-size="13" font-weight="400" text-anchor="start" font-family="sans-serif">扩展候选、累加分数、保留前 k 项</text><circle cx="100" cy="195" r="25" fill="#e9f3ee" stroke="#176653" stroke-width="1.5"/><text x="100" y="201" fill="#176653" font-size="12" font-weight="650" text-anchor="middle" font-family="sans-serif">&lt;S&gt;</text><path d="M125 195 L213 125" fill="none" stroke="#176653" stroke-width="2.1" marker-end="url(#arrow)"/><rect x="213" y="109" width="84" height="32" rx="16" fill="#176653" stroke="#176653" stroke-width="1.4"/><text x="255" y="130" fill="#ffffff" font-size="12" font-weight="650" text-anchor="middle" font-family="sans-serif">he 0.55</text><path d="M125 195 L213 195" fill="none" stroke="#176653" stroke-width="2.1" marker-end="url(#arrow)"/><rect x="213" y="179" width="84" height="32" rx="16" fill="#176653" stroke="#176653" stroke-width="1.4"/><text x="255" y="200" fill="#ffffff" font-size="12" font-weight="650" text-anchor="middle" font-family="sans-serif">I 0.3</text><path d="M125 195 L213 265" fill="none" stroke="#a8c2b4" stroke-width="2.1" marker-end="url(#arrow)"/><rect x="213" y="249" width="84" height="32" rx="16" fill="#ffffff" stroke="#a8c2b4" stroke-width="1.4"/><text x="255" y="270" fill="#667f72" font-size="12" font-weight="650" text-anchor="middle" font-family="sans-serif">the 0.15</text><path d="M297 125 L403 105" fill="none" stroke="#176653" stroke-width="2.1" marker-end="url(#arrow)"/><rect x="403" y="89" width="84" height="32" rx="16" fill="#176653" stroke="#176653" stroke-width="1.4"/><text x="445" y="110" fill="#ffffff" font-size="12" font-weight="650" text-anchor="middle" font-family="sans-serif">hit -0.82</text><path d="M297 125 L403 155" fill="none" stroke="#a8c2b4" stroke-width="2.1" marker-end="url(#arrow)"/><rect x="403" y="139" width="84" height="32" rx="16" fill="#ffffff" stroke="#a8c2b4" stroke-width="1.4"/><text x="445" y="160" fill="#667f72" font-size="12" font-weight="650" text-anchor="middle" font-family="sans-serif">ate -1.31</text><path d="M297 195 L403 215" fill="none" stroke="#176653" stroke-width="2.1" marker-end="url(#arrow)"/><rect x="403" y="199" width="84" height="32" rx="16" fill="#176653" stroke="#176653" stroke-width="1.4"/><text x="445" y="220" fill="#ffffff" font-size="12" font-weight="650" text-anchor="middle" font-family="sans-serif">am -1.2</text><path d="M297 195 L403 265" fill="none" stroke="#a8c2b4" stroke-width="2.1" marker-end="url(#arrow)"/><rect x="403" y="249" width="84" height="32" rx="16" fill="#ffffff" stroke="#a8c2b4" stroke-width="1.4"/><text x="445" y="270" fill="#667f72" font-size="12" font-weight="650" text-anchor="middle" font-family="sans-serif">was -1.58</text><rect x="620" y="115" width="285" height="172" rx="6" fill="#e9f3ee" stroke="#a8c2b4" stroke-width="1.4"/><text x="762.5" y="194" fill="#263f35" font-size="20" font-weight="650" text-anchor="middle" font-family="sans-serif">保留前 k = 2</text><text x="762.5" y="219" fill="#667f72" font-size="12" font-weight="400" text-anchor="middle" font-family="sans-serif">he hit   −0.82
I am      −1.20</text><text x="762" y="226" fill="#667f72" font-size="14" font-weight="400" text-anchor="middle" font-family="sans-serif">下一步再次扩展</text><text x="762" y="252" fill="#667f72" font-size="14" font-weight="400" text-anchor="middle" font-family="sans-serif">重新按累计分数排序</text></g></svg>
