<svg xmlns="http://www.w3.org/2000/svg" width="960" height="417" viewBox="0 0 960 417" role="img" aria-label="分类结果应对哪些变化保持稳定"><title>分类结果应对哪些变化保持稳定</title><desc>任务允许的变化不改变类别</desc><defs><marker id="arrow" viewBox="0 0 10 10" refX="9" refY="5" markerWidth="7" markerHeight="7" orient="auto"><path d="M0 0 L10 5 L0 10" fill="none" stroke="#176653" stroke-width="1.6"/></marker></defs><rect width="960" height="417" fill="#fbfdfb"/><g font-family="PingFang SC,Microsoft YaHei,Arial,sans-serif"><text x="48" y="43" fill="#263f35" font-size="22" font-weight="650" text-anchor="start" font-family="sans-serif">分类结果应对哪些变化保持稳定</text><text x="48" y="69" fill="#667f72" font-size="13" font-weight="400" text-anchor="start" font-family="sans-serif">任务允许的变化不改变类别</text><rect x="68" y="125" width="176" height="145" rx="7" fill="#ffffff" stroke="#a8c2b4" stroke-width="1.5"/><g transform="translate(156 197) "><path d="M-50 28 Q-36 -32 0 -40 Q36 -32 50 28 Q20 48 -20 43Z" fill="#fbf0dd" stroke="#b47936" stroke-width="2"/></g><text x="156" y="294" fill="#667f72" font-size="14" font-weight="650" text-anchor="middle" font-family="sans-serif">原图</text><rect x="107" y="316" width="98" height="34" rx="17" fill="#176653" stroke="#176653" stroke-width="1.5"/><text x="156" y="338" fill="#ffffff" font-size="13" font-weight="600" text-anchor="middle" font-family="sans-serif">同一类别</text><rect x="288" y="125" width="176" height="145" rx="7" fill="#f6faf7" stroke="#a8c2b4" stroke-width="1.5"/><g transform="translate(376 197) "><path d="M-50 28 Q-36 -32 0 -40 Q36 -32 50 28 Q20 48 -20 43Z" fill="#fbf0dd" stroke="#b47936" stroke-width="2"/><circle cx="25" cy="-20" r="6" fill="#176653"/></g><text x="376" y="294" fill="#667f72" font-size="14" font-weight="650" text-anchor="middle" font-family="sans-serif">平移</text><rect x="327" y="316" width="98" height="34" rx="17" fill="#176653" stroke="#176653" stroke-width="1.5"/><text x="376" y="338" fill="#ffffff" font-size="13" font-weight="600" text-anchor="middle" font-family="sans-serif">同一类别</text><rect x="508" y="125" width="176" height="145" rx="7" fill="#ffffff" stroke="#a8c2b4" stroke-width="1.5"/><g transform="translate(596 197) "><path d="M-50 28 Q-36 -32 0 -40 Q36 -32 50 28 Q20 48 -20 43Z" fill="#fbf0dd" stroke="#b47936" stroke-width="2"/></g><text x="596" y="294" fill="#667f72" font-size="14" font-weight="650" text-anchor="middle" font-family="sans-serif">缩放</text><rect x="547" y="316" width="98" height="34" rx="17" fill="#176653" stroke="#176653" stroke-width="1.5"/><text x="596" y="338" fill="#ffffff" font-size="13" font-weight="600" text-anchor="middle" font-family="sans-serif">同一类别</text><rect x="728" y="125" width="176" height="145" rx="7" fill="#f6faf7" stroke="#a8c2b4" stroke-width="1.5"/><g transform="translate(816 197) rotate(-18)"><path d="M-50 28 Q-36 -32 0 -40 Q36 -32 50 28 Q20 48 -20 43Z" fill="#fbf0dd" stroke="#b47936" stroke-width="2"/></g><text x="816" y="294" fill="#667f72" font-size="14" font-weight="650" text-anchor="middle" font-family="sans-serif">旋转</text><rect x="767" y="316" width="98" height="34" rx="17" fill="#176653" stroke="#176653" stroke-width="1.5"/><text x="816" y="338" fill="#ffffff" font-size="13" font-weight="600" text-anchor="middle" font-family="sans-serif">同一类别</text></g></svg>
